<svg id="Capa_1" enable-background="new 0 0 512 512" height="512" viewBox="0 0 512 512" width="512" xmlns="http://www.w3.org/2000/svg"><g><path d="m442.487 359.581c-.356 4.792-1.673 9.326-3.766 13.399-100.328 7.12-200.665 6.676-300.994-1.325-1.722-3.726-2.804-7.791-3.128-12.074-7.54-100.725-7.969-201.433-1.285-302.15.404-6.094.832-12.179 1.285-18.265 1.261-16.883 14.418-30.493 31.237-32.36 81.805-9.076 163.61-9.076 245.414 0 16.827 1.867 29.976 15.477 31.236 32.36 1.907 25.458 3.354 50.924 4.348 76.382 3.194 81.345 1.739 162.689-4.347 244.033z" fill="#e7ecf6"/><path d="m399.167 398.909c-.362 4.801-1.676 9.332-3.766 13.408-100.334 7.118-200.669 6.673-301.003-1.335-1.717-3.725-2.804-7.79-3.124-12.074-6.363-84.919-7.656-169.817-3.9-254.736.693-15.798 1.573-31.607 2.618-47.405.403-6.094.828-12.187 1.283-18.271 1.262-16.885 14.422-30.489 31.234-32.362 81.805-9.073 163.61-9.073 245.415 0 16.833 1.873 29.982 15.477 31.245 32.362 1.904 25.461 3.352 50.922 4.345 76.384.683 17.329 1.148 34.648 1.407 51.967.951 64.021-.963 128.042-5.754 192.062z" fill="#f9f6f6"/><path d="m399.167 398.909c-.362 4.801-1.676 9.332-3.766 13.408-100.334 7.118-200.669 6.673-301.003-1.335-1.717-3.725-2.804-7.79-3.124-12.074-6.363-84.919-7.656-169.817-3.9-254.736 53.178-7.718 100.893-7.842 146.715-.362 13.801 2.255 24.458 13.439 26.02 27.324.207 1.8.403 3.6.6 5.401 1.738 15.943 15.239 27.996 31.276 27.913 37.649-.176 75.287.621 112.936 2.4.951 64.02-.963 128.041-5.754 192.061z" fill="#e7ecf6"/><path d="m352.143 135.013h-200.828c-4.268 0-7.726-3.459-7.726-7.726s3.459-7.726 7.726-7.726h200.828c4.268 0 7.726 3.459 7.726 7.726s-3.458 7.726-7.726 7.726z" fill="#9dc6fb"/><path d="m352.145 179.388h-155.293c-4.268 0-7.726-3.459-7.726-7.726s3.459-7.726 7.726-7.726h155.294c4.268 0 7.726 3.459 7.726 7.726s-3.459 7.726-7.727 7.726z" fill="#9dc6fb"/><path d="m464.307 430.392-.009.009c-1.16 15.63-2.618 31.252-4.358 46.883-1.654 14.889-13.712 26.469-28.643 27.663-116.858 9.406-233.733 9.406-350.591 0-15.008-1.202-27.006-12.893-28.669-27.85-10.668-95.821-10.582-191.642.239-287.463 1.595-14.104 12.544-25.352 26.588-27.415 53.73-7.913 101.858-8.101 148.068-.554 13.806 2.251 24.456 13.43 26.025 27.321.205 1.799.401 3.599.597 5.398 1.74 15.946 15.238 27.995 31.278 27.918 50.473-.239 100.946 1.279 151.419 4.545 15.775 1.023 28.302 13.635 29.266 29.419 3.539 58.044 3.139 116.081-1.21 174.126z" fill="#e7a561"/><path d="m103.374 506.664c-7.552-.529-15.113-1.102-22.665-1.71-15.007-1.207-27.001-12.901-28.666-27.855-10.672-95.824-10.584-191.639.237-287.463 1.595-14.1 12.54-25.353 26.586-27.415 9.173-1.348 18.189-2.476 27.062-3.375-9.218 4.934-15.756 14.152-16.981 24.991-11.253 99.666-11.35 199.341-.247 299.007 1.112 10.02 6.681 18.63 14.674 23.82z" fill="#e49542"/><g><g><path d="m205.893 475.548c-3.631 0-7.339-.842-11.036-2.527-5.305-2.418-8.777-5.827-9.155-6.208-3.007-3.027-2.992-7.919.035-10.927 3.014-2.996 7.878-2.992 10.888-.004.373.36 7.007 6.621 13.395 3.073 3.295-1.829 5.341-5.407 5.341-9.338v-72.39c0-4.267 3.459-7.726 7.726-7.726s7.726 3.459 7.726 7.726v72.39c0 9.542-5.094 18.297-13.294 22.849-3.695 2.053-7.613 3.082-11.626 3.082z" fill="#365e7d"/></g><g fill="#365e7d"><g><path d="m374.186 426.728c-2.043 0-4.003-.809-5.451-2.251-1.457-1.45-2.276-3.42-2.276-5.475v-41.774c0-4.267 3.459-7.726 7.726-7.726h26.31c15.753 0 28.568 12.815 28.568 28.568 0 15.752-12.815 28.568-28.568 28.568-5.7 0-26.274.092-26.276.092-.01-.002-.022-.002-.033-.002zm7.726-41.774v26.289c6.476-.027 15.177-.059 18.584-.059 7.231 0 13.115-5.883 13.115-13.115 0-7.231-5.883-13.115-13.115-13.115z"/><path d="m374.186 475.528c-2.043 0-4.003-.809-5.451-2.251-1.457-1.45-2.276-3.42-2.276-5.475v-48.867c0-4.267 3.459-7.726 7.726-7.726h30.905c17.703 0 32.106 14.403 32.106 32.106s-14.402 32.106-32.106 32.106c-6.669 0-30.868.108-30.87.108-.011-.001-.023-.001-.034-.001zm7.726-48.867v33.381c7.71-.032 18.972-.075 23.178-.075 9.182 0 16.653-7.47 16.653-16.653s-7.471-16.654-16.653-16.654h-23.178z"/></g><path d="m300.509 475.528c-29.232 0-53.013-23.782-53.013-53.013s23.782-53.013 53.013-53.013 53.013 23.782 53.013 53.013-23.781 53.013-53.013 53.013zm0-90.574c-20.711 0-37.561 16.85-37.561 37.561s16.849 37.561 37.561 37.561 37.561-16.85 37.561-37.561-16.849-37.561-37.561-37.561z"/></g></g></g></svg>